<svg xmlns="http://www.w3.org/2000/svg" width="136" height="28" viewBox="0 0 136 28">
    <g fill="none" fill-rule="evenodd">
        <g fill="#FFF">
            <path d="M45.738 6.847h-.722c-.703 0-1.007.218-1.488 1.025l-3.857 6.555-1.6-6.488c-.194-.774-.401-1.092-1.202-1.092h-.608c-.784 0-1.297.487-1.44 1.362l-1.794 10.557c-.13.792.208 1.21.865 1.21h.27c.69 0 .995-.352 1.122-1.144l1.44-8.54 1.393 5.716c.113.571.226.959 1.266.959.88 0 1.088-.32 1.393-.856l3.408-5.886-1.44 8.541c-.13.806.208 1.21.849 1.21h.288c.689 0 .992-.37 1.12-1.144l1.794-10.59c.143-.841-.24-1.395-1.057-1.395M51.459 18.113c-1.533 0-2.491-1.14-2.543-2.684-.066-1.995 1.207-3.772 3.032-3.772 1.401 0 2.51 1.14 2.558 2.7.065 2.114-1.222 3.756-3.047 3.756m5.12-3.856c-.084-2.553-1.778-4.445-4.616-4.445-3.243 0-5.232 2.717-5.135 5.7.1 2.718 1.925 4.464 4.613 4.464 3.328 0 5.234-2.734 5.138-5.72M63.946 9.812c-1.344 0-2.411.67-3.109 1.798.066-1.276-.631-1.65-1.344-1.65-.338 0-.598.08-.616.129l-1.455 8.352c-.146.868.339 1.112.953 1.112h.261c.679 0 .955-.278 1.101-1.112l.873-5.018c.633-1.11 1.328-1.633 2.398-1.633 1.084 0 1.716.653 1.747 1.732.016.278-.048.636-.112 1.047l-.681 3.872c-.145.868.34 1.112.956 1.112h.259c.68 0 .955-.278 1.1-1.112l.745-4.264c.08-.477.145-.902.13-1.276-.065-1.815-1.246-3.09-3.206-3.09M104.602 9.812c-1.067 0-1.853.636-2.402 1.798.078-1.276-.594-1.65-1.284-1.65-.347 0-.58.08-.598.129l-1.427 8.352c-.14.868.407 1.112 1.005 1.112h.25c.566 0 .848-.278.99-1.112l.47-2.794c.362-2.173 1.129-3.696 2.383-3.696.613 0 .99.264 1.258.557.03.033.97-.343.94-1.504-.03-.719-.722-1.192-1.585-1.192M110.124 18.113c-1.415 0-2.236-.94-2.236-2.601 0-1.943 1.092-3.89 3.12-3.89 1.642 0 2.336 1.258 2.336 2.65 0 1.746-1.13 3.841-3.22 3.841m5.405-8.15c-.9 0-1.398.453-1.688 1.644-.58-1.125-1.756-1.795-3.12-1.795-2.912 0-4.94 2.7-4.94 5.77 0 2.531 1.495 4.394 3.843 4.394 1.433 0 2.545-.623 3.25-1.863-.096 1.292.147 1.695 1.032 1.695.805 0 1.061-.303 1.142-1.226.111-1.694.66-4.46 1.304-8.336.015-.067-.355-.283-.823-.283M129.215 9.812c-1.568 0-2.615.832-3.346 2.041-.363-1.274-1.429-2.041-2.79-2.041-1.19 0-2.237.588-2.95 1.683.032-1.177-.635-1.536-1.316-1.536-.333 0-.572.08-.604.13l-1.424 8.352c-.144.868.331 1.112.933 1.112h.254c.572 0 .938-.244 1.08-1.112l.886-5.181c.65-1.031 1.254-1.47 2.22-1.47.936 0 1.523.718 1.523 1.814 0 .18-.017.376-.046.573l-.713 4.264c-.145.868.347 1.112.935 1.112h.236c.586 0 .953-.262 1.096-1.112l.887-5.181c.65-1.031 1.27-1.47 2.22-1.47.904 0 1.568.571 1.568 1.732 0 .278-.046.636-.11 1.047l-.667 3.872c-.14.868.333 1.112.936 1.112h.255c.667 0 .933-.278 1.075-1.112l.73-4.264c.08-.477.127-.902.127-1.276 0-1.897-1.234-3.09-2.995-3.09M75.329 13.808h-5.135c.488-1.387 1.629-2.239 3.082-2.239.726 0 1.296.218 1.66.651.311.384.441.92.393 1.588m1.99.32c0-1.322-.25-2.209-.822-2.978-.615-.836-1.753-1.338-3.079-1.338-4.013 0-5.45 3.128-5.45 5.854 0 2.591 1.767 4.31 4.485 4.31 2.718 0 4.25-1.283 4.25-2.303 0-.687-.457-.922-.98-.971-.708.971-1.706 1.437-3.047 1.437-1.187 0-2.606-.483-2.7-2.725h6.173c.664 0 1.17-.401 1.17-1.286M97.069 12.572H93.32c-.447 0-.658.099-.803.25-.226.247-.34.808-.34 1.056.014.397.354.627.953.627h2.662c-.372 1.902-1.549 3.225-3.582 3.225-2.13 0-3.569-1.39-3.65-3.75-.097-2.977 1.825-5.423 4.553-5.423 1.596 0 2.84.875 3.359 2.032.064.082 1.548.082 1.5-1.207-.015-.462-.273-1.008-.76-1.47-.79-.794-2.258-1.488-4.211-1.488-2.744 0-4.909 1.554-6.037 3.785 0-.016-.018-.016-.018-.016-.225-.299-.597-.447-.953-.447-.613 0-1 .199-1.596 1.257l-2.922 5.238-1.1-5.224c-.207-.975-.55-1.271-1.161-1.271-.709 0-1.291.528-1.259.66l2.083 8.449-2.18 3.602c-.224.395-.243.908.583.908h.452c.853 0 1.129-.53 1.549-1.257l5.876-10.165a7.936 7.936 0 0 0-.227 2.25c.113 3.421 2.356 5.469 5.652 5.469 1.564 0 2.807-.61 3.501-1.537-.05.991.468 1.39 1.163 1.39.388 0 .662-.132.662-.198l.951-5.472c.146-.843-.162-1.273-.951-1.273M134.503 18.248c.21 0 .327-.132.323-.348-.002-.16-.102-.245-.283-.245h-.263l-.098.593h.321zm.216.522c.069.136.108.192.208.194.006.005.018.165-.145.165-.098 0-.16-.05-.265-.27l-.193-.399h-.172l-.089.542c-.016.083-.045.124-.11.124h-.032c-.062 0-.096-.048-.082-.134l.231-1.408c.012-.097.064-.149.143-.149h.345c.324 0 .495.154.498.439.005.341-.184.555-.506.567l.169.329z"/>
            <path d="M134.445 17.012c-.785 0-1.422.666-1.422 1.482 0 .817.637 1.482 1.422 1.482.785 0 1.424-.665 1.424-1.482 0-.816-.639-1.482-1.424-1.482m0 .21c.676 0 1.222.57 1.222 1.272 0 .702-.546 1.272-1.222 1.272-.675 0-1.222-.57-1.222-1.272 0-.702.547-1.272 1.222-1.272"/>
        </g>
        <circle cx="14" cy="14" r="14" fill="#FFF"/>
        <path fill="#DA291C" d="M28 14c0 7.732-6.268 14-14 14S0 21.732 0 14c0-2.13.475-4.148 1.327-5.956C.76 9.48.505 10.902.505 12.234c0 6.339 5.118 7.257 7.296 7.236 3.31-.03 7.18-1.652 10.44-4.656l-.55 3.091c-.123.707.339 1.329 1.045 1.333h.292c.732 0 1.252-.596 1.384-1.333l1.174-6.606c.14-.733-.342-1.33-1.075-1.33h-6.618c-.736 0-1.409.39-1.54 1.129l-.052.298c-.105.703.385 1.233 1.087 1.233h3.452a11.06 11.06 0 0 0-.165.162c-2.38 2.253-5.315 3.486-7.747 3.486-2.427 0-5.145-1.531-5.145-4.98C3.783 4.147 10.489 0 14 0c7.716 0 14 6.268 14 14"/>
    </g>
</svg>
